<svg xmlns="http://www.w3.org/2000/svg" viewBox="0 0 420 760" fill="none" stroke-linecap="round" stroke-linejoin="round"><path d="M30 750Q120 420 330 40" fill="none" stroke="#43533E" stroke-width="1.6" stroke-linecap="round" stroke-opacity=".85"/><path d="M52.7 672.0L69.7 663.8" stroke="#43533E" stroke-width=".9" stroke-opacity=".7"/><path d="M69.7 663.8C88.8 613.4 158.2 587.9 214.1 603.0C183.4 647.5 118.9 686.6 69.7 663.8Z" fill="none" fill-opacity="0.729168023664632" stroke="#43533E" stroke-width="0.9" stroke-opacity="0.979168023664632"/><path d="M69.7 663.8Q140.8 631.3 208.3 605.5" fill="none" stroke="#43533E" stroke-opacity="0.7" stroke-width=".7"/><path d="M93.9 652.5L105.2 625.4" stroke="#43533E" stroke-opacity="0.45" stroke-width=".5" fill="none"/><path d="M93.9 652.5L122.1 660.6" stroke="#43533E" stroke-opacity="0.45" stroke-width=".5" fill="none"/><path d="M106.9 646.5L118.6 620.3" stroke="#43533E" stroke-opacity="0.45" stroke-width=".5" fill="none"/><path d="M106.9 646.5L134.6 653.6" stroke="#43533E" stroke-opacity="0.45" stroke-width=".5" fill="none"/><path d="M119.8 640.4L132.0 615.3" stroke="#43533E" stroke-opacity="0.45" stroke-width=".5" fill="none"/><path d="M119.8 640.4L147.1 646.6" stroke="#43533E" stroke-opacity="0.45" stroke-width=".5" fill="none"/><path d="M132.7 634.4L145.4 610.2" stroke="#43533E" stroke-opacity="0.45" stroke-width=".5" fill="none"/><path d="M132.7 634.4L159.5 639.6" stroke="#43533E" stroke-opacity="0.45" stroke-width=".5" fill="none"/><path d="M145.6 628.4L158.8 605.2" stroke="#43533E" stroke-opacity="0.45" stroke-width=".5" fill="none"/><path d="M145.6 628.4L172.0 632.5" stroke="#43533E" stroke-opacity="0.45" stroke-width=".5" fill="none"/><path d="M158.6 622.3L172.2 600.1" stroke="#43533E" stroke-opacity="0.45" stroke-width=".5" fill="none"/><path d="M158.6 622.3L184.4 625.5" stroke="#43533E" stroke-opacity="0.45" stroke-width=".5" fill="none"/><path d="M171.5 616.3L185.6 595.0" stroke="#43533E" stroke-opacity="0.45" stroke-width=".5" fill="none"/><path d="M171.5 616.3L196.9 618.5" stroke="#43533E" stroke-opacity="0.45" stroke-width=".5" fill="none"/><path d="M184.4 610.3L198.9 590.0" stroke="#43533E" stroke-opacity="0.45" stroke-width=".5" fill="none"/><path d="M184.4 610.3L209.3 611.5" stroke="#43533E" stroke-opacity="0.45" stroke-width=".5" fill="none"/><path d="M69.6 619.6L66.6 606.5" stroke="#43533E" stroke-width=".9" stroke-opacity=".7"/><path d="M66.6 606.5C40.3 583.9 32.6 531.9 41.1 498.0C68.3 526.1 84.1 577.4 66.6 606.5Z" fill="#5E7057" fill-opacity="0.6886559917603823" stroke="#43533E" stroke-width="0.9" stroke-opacity="0.9386559917603823"/><path d="M66.6 606.5Q54.2 552.2 42.1 502.3" fill="none" stroke="#F4EFE4" stroke-opacity="0.45" stroke-width=".7"/><path d="M61.3 583.0L47.5 570.1" stroke="#F4EFE4" stroke-opacity="0.3" stroke-width=".5" fill="none"/><path d="M61.3 583.0L68.2 565.4" stroke="#F4EFE4" stroke-opacity="0.3" stroke-width=".5" fill="none"/><path d="M57.9 568.1L45.0 555.0" stroke="#F4EFE4" stroke-opacity="0.3" stroke-width=".5" fill="none"/><path d="M57.9 568.1L63.9 550.7" stroke="#F4EFE4" stroke-opacity="0.3" stroke-width=".5" fill="none"/><path d="M54.5 553.3L42.4 540.0" stroke="#F4EFE4" stroke-opacity="0.3" stroke-width=".5" fill="none"/><path d="M54.5 553.3L59.6 536.1" stroke="#F4EFE4" stroke-opacity="0.3" stroke-width=".5" fill="none"/><path d="M51.1 538.4L39.9 524.9" stroke="#F4EFE4" stroke-opacity="0.3" stroke-width=".5" fill="none"/><path d="M51.1 538.4L55.3 521.4" stroke="#F4EFE4" stroke-opacity="0.3" stroke-width=".5" fill="none"/><path d="M47.7 523.5L37.4 509.9" stroke="#F4EFE4" stroke-opacity="0.3" stroke-width=".5" fill="none"/><path d="M47.7 523.5L51.1 506.8" stroke="#F4EFE4" stroke-opacity="0.3" stroke-width=".5" fill="none"/><path d="M82.2 582.8L96.3 577.5" stroke="#43533E" stroke-width=".9" stroke-opacity=".7"/><path d="M96.3 577.5C113.0 532.7 170.8 518.4 212.1 528.3C190.6 578.1 136.5 605.9 96.3 577.5Z" fill="none" fill-opacity="0.6165728919792752" stroke="#43533E" stroke-width="0.9" stroke-opacity="0.8665728919792752"/><path d="M96.3 577.5Q154.8 554.4 207.5 530.3" fill="none" stroke="#43533E" stroke-opacity="0.7" stroke-width=".7"/><path d="M119.4 568.5L129.3 544.8" stroke="#43533E" stroke-opacity="0.45" stroke-width=".5" fill="none"/><path d="M119.4 568.5L142.5 579.8" stroke="#43533E" stroke-opacity="0.45" stroke-width=".5" fill="none"/><path d="M133.1 563.2L143.5 540.8" stroke="#43533E" stroke-opacity="0.45" stroke-width=".5" fill="none"/><path d="M133.1 563.2L155.7 573.2" stroke="#43533E" stroke-opacity="0.45" stroke-width=".5" fill="none"/><path d="M146.9 557.9L157.7 536.7" stroke="#43533E" stroke-opacity="0.45" stroke-width=".5" fill="none"/><path d="M146.9 557.9L169.0 566.6" stroke="#43533E" stroke-opacity="0.45" stroke-width=".5" fill="none"/><path d="M160.6 552.5L171.9 532.7" stroke="#43533E" stroke-opacity="0.45" stroke-width=".5" fill="none"/><path d="M160.6 552.5L182.2 560.0" stroke="#43533E" stroke-opacity="0.45" stroke-width=".5" fill="none"/><path d="M174.3 547.2L186.1 528.6" stroke="#43533E" stroke-opacity="0.45" stroke-width=".5" fill="none"/><path d="M174.3 547.2L195.5 553.5" stroke="#43533E" stroke-opacity="0.45" stroke-width=".5" fill="none"/><path d="M188.1 541.9L200.4 524.5" stroke="#43533E" stroke-opacity="0.45" stroke-width=".5" fill="none"/><path d="M188.1 541.9L208.8 546.9" stroke="#43533E" stroke-opacity="0.45" stroke-width=".5" fill="none"/><path d="M85.7 572.8L80.1 560.3" stroke="#43533E" stroke-width=".9" stroke-opacity=".7"/><path d="M80.1 560.3C38.4 547.9 22.1 496.4 27.1 459.1C75.3 474.9 103.6 522.2 80.1 560.3Z" fill="#7E8D75" fill-opacity="0.7249206032723772" stroke="#43533E" stroke-width="0.9" stroke-opacity="0.9749206032723772"/><path d="M80.1 560.3Q55.4 508.9 29.2 463.2" fill="none" stroke="#F4EFE4" stroke-opacity="0.45" stroke-width=".7"/><path d="M70.5 540.0L48.4 532.4" stroke="#F4EFE4" stroke-opacity="0.3" stroke-width=".5" fill="none"/><path d="M70.5 540.0L79.5 518.4" stroke="#F4EFE4" stroke-opacity="0.3" stroke-width=".5" fill="none"/><path d="M64.9 527.9L43.9 519.8" stroke="#F4EFE4" stroke-opacity="0.3" stroke-width=".5" fill="none"/><path d="M64.9 527.9L72.7 506.8" stroke="#F4EFE4" stroke-opacity="0.3" stroke-width=".5" fill="none"/><path d="M59.2 515.8L39.3 507.2" stroke="#F4EFE4" stroke-opacity="0.3" stroke-width=".5" fill="none"/><path d="M59.2 515.8L65.9 495.2" stroke="#F4EFE4" stroke-opacity="0.3" stroke-width=".5" fill="none"/><path d="M53.5 503.7L34.8 494.6" stroke="#F4EFE4" stroke-opacity="0.3" stroke-width=".5" fill="none"/><path d="M53.5 503.7L59.1 483.6" stroke="#F4EFE4" stroke-opacity="0.3" stroke-width=".5" fill="none"/><path d="M47.9 491.6L30.2 482.0" stroke="#F4EFE4" stroke-opacity="0.3" stroke-width=".5" fill="none"/><path d="M47.9 491.6L52.3 472.0" stroke="#F4EFE4" stroke-opacity="0.3" stroke-width=".5" fill="none"/><path d="M42.2 479.5L25.7 469.4" stroke="#F4EFE4" stroke-opacity="0.3" stroke-width=".5" fill="none"/><path d="M42.2 479.5L45.5 460.4" stroke="#F4EFE4" stroke-opacity="0.3" stroke-width=".5" fill="none"/><path d="M106.6 515.6L120.6 507.0" stroke="#43533E" stroke-width=".9" stroke-opacity=".7"/><path d="M120.6 507.0C127.4 452.9 186.4 426.0 233.8 429.6C223.0 490.2 171.5 531.8 120.6 507.0Z" fill="#5E7057" fill-opacity="0.6603470259554425" stroke="#43533E" stroke-width="0.9" stroke-opacity="0.9103470259554425"/><path d="M120.6 507.0Q178.2 469.8 229.3 432.7" fill="none" stroke="#F4EFE4" stroke-opacity="0.45" stroke-width=".7"/><path d="M141.7 493.6L146.4 464.6" stroke="#F4EFE4" stroke-opacity="0.3" stroke-width=".5" fill="none"/><path d="M141.7 493.6L169.7 502.3" stroke="#F4EFE4" stroke-opacity="0.3" stroke-width=".5" fill="none"/><path d="M153.6 486.0L158.9 458.3" stroke="#F4EFE4" stroke-opacity="0.3" stroke-width=".5" fill="none"/><path d="M153.6 486.0L180.8 493.6" stroke="#F4EFE4" stroke-opacity="0.3" stroke-width=".5" fill="none"/><path d="M165.4 478.5L171.5 451.9" stroke="#F4EFE4" stroke-opacity="0.3" stroke-width=".5" fill="none"/><path d="M165.4 478.5L191.9 484.9" stroke="#F4EFE4" stroke-opacity="0.3" stroke-width=".5" fill="none"/><path d="M177.3 471.0L184.1 445.6" stroke="#F4EFE4" stroke-opacity="0.3" stroke-width=".5" fill="none"/><path d="M177.3 471.0L203.0 476.1" stroke="#F4EFE4" stroke-opacity="0.3" stroke-width=".5" fill="none"/><path d="M189.1 463.4L196.7 439.2" stroke="#F4EFE4" stroke-opacity="0.3" stroke-width=".5" fill="none"/><path d="M189.1 463.4L214.2 467.4" stroke="#F4EFE4" stroke-opacity="0.3" stroke-width=".5" fill="none"/><path d="M201.0 455.9L209.3 432.9" stroke="#F4EFE4" stroke-opacity="0.3" stroke-width=".5" fill="none"/><path d="M201.0 455.9L225.3 458.7" stroke="#F4EFE4" stroke-opacity="0.3" stroke-width=".5" fill="none"/><path d="M212.8 448.4L221.8 426.5" stroke="#F4EFE4" stroke-opacity="0.3" stroke-width=".5" fill="none"/><path d="M212.8 448.4L236.4 450.0" stroke="#F4EFE4" stroke-opacity="0.3" stroke-width=".5" fill="none"/><path d="M119.3 482.9L117.0 468.6" stroke="#43533E" stroke-width=".9" stroke-opacity=".7"/><path d="M117.0 468.6C85.3 443.2 81.7 386.7 86.1 351.9C129.3 381.6 143.5 437.7 117.0 468.6Z" fill="#A3AE99" fill-opacity="0.8853148341619348" stroke="#43533E" stroke-width="0.9" stroke-opacity="1"/><path d="M117.0 468.6Q105.2 409.7 87.3 356.6" fill="none" stroke="#F4EFE4" stroke-opacity="0.45" stroke-width=".7"/><path d="M112.7 445.3L96.1 430.9" stroke="#F4EFE4" stroke-opacity="0.3" stroke-width=".5" fill="none"/><path d="M112.7 445.3L124.1 426.5" stroke="#F4EFE4" stroke-opacity="0.3" stroke-width=".5" fill="none"/><path d="M110.2 431.5L94.6 416.9" stroke="#F4EFE4" stroke-opacity="0.3" stroke-width=".5" fill="none"/><path d="M110.2 431.5L120.6 412.8" stroke="#F4EFE4" stroke-opacity="0.3" stroke-width=".5" fill="none"/><path d="M107.6 417.6L93.0 402.9" stroke="#F4EFE4" stroke-opacity="0.3" stroke-width=".5" fill="none"/><path d="M107.6 417.6L117.0 399.1" stroke="#F4EFE4" stroke-opacity="0.3" stroke-width=".5" fill="none"/><path d="M105.1 403.8L91.5 388.9" stroke="#F4EFE4" stroke-opacity="0.3" stroke-width=".5" fill="none"/><path d="M105.1 403.8L113.4 385.5" stroke="#F4EFE4" stroke-opacity="0.3" stroke-width=".5" fill="none"/><path d="M102.5 390.0L90.0 374.9" stroke="#F4EFE4" stroke-opacity="0.3" stroke-width=".5" fill="none"/><path d="M102.5 390.0L109.9 371.8" stroke="#F4EFE4" stroke-opacity="0.3" stroke-width=".5" fill="none"/><path d="M100.0 376.1L88.4 360.9" stroke="#F4EFE4" stroke-opacity="0.3" stroke-width=".5" fill="none"/><path d="M100.0 376.1L106.3 358.1" stroke="#F4EFE4" stroke-opacity="0.3" stroke-width=".5" fill="none"/><path d="M130.4 454.9L142.8 446.9" stroke="#43533E" stroke-width=".9" stroke-opacity=".7"/><path d="M142.8 446.9C152.8 405.5 204.6 378.7 243.0 374.4C230.3 423.0 183.6 460.0 142.8 446.9Z" fill="#43533E" fill-opacity="0.7481846110545786" stroke="#43533E" stroke-width="0.9" stroke-opacity="0.9981846110545786"/><path d="M142.8 446.9Q194.0 412.3 239.0 377.3" fill="none" stroke="#F4EFE4" stroke-opacity="0.45" stroke-width=".7"/><path d="M163.1 433.4L169.4 411.3" stroke="#F4EFE4" stroke-opacity="0.3" stroke-width=".5" fill="none"/><path d="M163.1 433.4L185.9 436.8" stroke="#F4EFE4" stroke-opacity="0.3" stroke-width=".5" fill="none"/><path d="M175.2 425.4L182.0 404.2" stroke="#F4EFE4" stroke-opacity="0.3" stroke-width=".5" fill="none"/><path d="M175.2 425.4L197.3 427.8" stroke="#F4EFE4" stroke-opacity="0.3" stroke-width=".5" fill="none"/><path d="M187.2 417.4L194.7 397.1" stroke="#F4EFE4" stroke-opacity="0.3" stroke-width=".5" fill="none"/><path d="M187.2 417.4L208.8 418.9" stroke="#F4EFE4" stroke-opacity="0.3" stroke-width=".5" fill="none"/><path d="M199.2 409.4L207.3 390.0" stroke="#F4EFE4" stroke-opacity="0.3" stroke-width=".5" fill="none"/><path d="M199.2 409.4L220.2 410.0" stroke="#F4EFE4" stroke-opacity="0.3" stroke-width=".5" fill="none"/><path d="M211.3 401.4L219.9 382.9" stroke="#F4EFE4" stroke-opacity="0.3" stroke-width=".5" fill="none"/><path d="M211.3 401.4L231.7 401.0" stroke="#F4EFE4" stroke-opacity="0.3" stroke-width=".5" fill="none"/><path d="M223.3 393.3L232.6 375.8" stroke="#F4EFE4" stroke-opacity="0.3" stroke-width=".5" fill="none"/><path d="M223.3 393.3L243.1 392.1" stroke="#F4EFE4" stroke-opacity="0.3" stroke-width=".5" fill="none"/><path d="M159.3 385.8L156.4 375.9" stroke="#43533E" stroke-width=".9" stroke-opacity=".7"/><path d="M156.4 375.9C135.9 359.4 127.5 319.8 135.9 292.3C153.2 314.1 167.5 353.0 156.4 375.9Z" fill="#43533E" fill-opacity="0.5912970877968429" stroke="#43533E" stroke-width="0.9" stroke-opacity="0.8412970877968429"/><path d="M156.4 375.9Q145.1 334.4 136.7 295.6" fill="none" stroke="#F4EFE4" stroke-opacity="0.45" stroke-width=".7"/><path d="M150.8 355.7L140.1 346.2" stroke="#F4EFE4" stroke-opacity="0.3" stroke-width=".5" fill="none"/><path d="M150.8 355.7L154.7 342.0" stroke="#F4EFE4" stroke-opacity="0.3" stroke-width=".5" fill="none"/><path d="M147.0 342.1L137.1 332.4" stroke="#F4EFE4" stroke-opacity="0.3" stroke-width=".5" fill="none"/><path d="M147.0 342.1L150.2 328.6" stroke="#F4EFE4" stroke-opacity="0.3" stroke-width=".5" fill="none"/><path d="M143.2 328.5L134.1 318.6" stroke="#F4EFE4" stroke-opacity="0.3" stroke-width=".5" fill="none"/><path d="M143.2 328.5L145.6 315.2" stroke="#F4EFE4" stroke-opacity="0.3" stroke-width=".5" fill="none"/><path d="M139.4 314.9L131.0 304.8" stroke="#F4EFE4" stroke-opacity="0.3" stroke-width=".5" fill="none"/><path d="M139.4 314.9L141.1 301.9" stroke="#F4EFE4" stroke-opacity="0.3" stroke-width=".5" fill="none"/><path d="M166.3 369.6L176.6 362.0" stroke="#43533E" stroke-width=".9" stroke-opacity=".7"/><path d="M176.6 362.0C185.5 329.4 228.0 303.1 266.8 305.6C248.0 333.8 209.4 367.3 176.6 362.0Z" fill="#7E8D75" fill-opacity="0.6167395453516281" stroke="#43533E" stroke-width="0.9" stroke-opacity="0.8667395453516281"/><path d="M176.6 362.0Q220.2 331.9 263.2 307.9" fill="none" stroke="#F4EFE4" stroke-opacity="0.45" stroke-width=".7"/><path d="M195.3 348.8L200.9 331.3" stroke="#F4EFE4" stroke-opacity="0.3" stroke-width=".5" fill="none"/><path d="M195.3 348.8L213.7 348.6" stroke="#F4EFE4" stroke-opacity="0.3" stroke-width=".5" fill="none"/><path d="M207.2 340.4L213.3 323.7" stroke="#F4EFE4" stroke-opacity="0.3" stroke-width=".5" fill="none"/><path d="M207.2 340.4L225.0 339.5" stroke="#F4EFE4" stroke-opacity="0.3" stroke-width=".5" fill="none"/><path d="M219.0 332.0L225.7 316.0" stroke="#F4EFE4" stroke-opacity="0.3" stroke-width=".5" fill="none"/><path d="M219.0 332.0L236.2 330.4" stroke="#F4EFE4" stroke-opacity="0.3" stroke-width=".5" fill="none"/><path d="M230.8 323.6L238.1 308.4" stroke="#F4EFE4" stroke-opacity="0.3" stroke-width=".5" fill="none"/><path d="M230.8 323.6L247.5 321.3" stroke="#F4EFE4" stroke-opacity="0.3" stroke-width=".5" fill="none"/><path d="M242.7 315.3L250.5 300.8" stroke="#F4EFE4" stroke-opacity="0.3" stroke-width=".5" fill="none"/><path d="M242.7 315.3L258.8 312.2" stroke="#F4EFE4" stroke-opacity="0.3" stroke-width=".5" fill="none"/><path d="M185.2 327.2L181.5 319.5" stroke="#43533E" stroke-width=".9" stroke-opacity=".7"/><path d="M181.5 319.5C158.9 310.5 147.3 278.8 142.1 259.1C173.9 267.7 191.5 297.3 181.5 319.5Z" fill="none" fill-opacity="0.8525168798105804" stroke="#43533E" stroke-width="0.9" stroke-opacity="1"/><path d="M181.5 319.5Q164.4 288.1 143.6 261.6" fill="none" stroke="#43533E" stroke-opacity="0.7" stroke-width=".7"/><path d="M172.1 301.4L160.5 295.9" stroke="#43533E" stroke-opacity="0.45" stroke-width=".5" fill="none"/><path d="M172.1 301.4L175.1 288.9" stroke="#43533E" stroke-opacity="0.45" stroke-width=".5" fill="none"/><path d="M165.3 288.4L154.7 282.4" stroke="#43533E" stroke-opacity="0.45" stroke-width=".5" fill="none"/><path d="M165.3 288.4L167.3 276.4" stroke="#43533E" stroke-opacity="0.45" stroke-width=".5" fill="none"/><path d="M158.6 275.4L148.9 268.9" stroke="#43533E" stroke-opacity="0.45" stroke-width=".5" fill="none"/><path d="M158.6 275.4L159.6 263.8" stroke="#43533E" stroke-opacity="0.45" stroke-width=".5" fill="none"/><path d="M213.8 265.7L221.2 265.4" stroke="#43533E" stroke-width=".9" stroke-opacity=".7"/><path d="M221.2 265.4C236.0 252.4 265.1 253.4 282.9 262.9C264.9 274.9 235.4 278.6 221.2 265.4Z" fill="none" fill-opacity="0.6012255111682057" stroke="#43533E" stroke-width="0.9" stroke-opacity="0.8512255111682057"/><path d="M221.2 265.4Q252.0 264.0 280.4 263.0" fill="none" stroke="#43533E" stroke-opacity="0.7" stroke-width=".7"/><path d="M243.0 264.4L251.3 258.2" stroke="#43533E" stroke-opacity="0.45" stroke-width=".5" fill="none"/><path d="M243.0 264.4L251.9 269.7" stroke="#43533E" stroke-opacity="0.45" stroke-width=".5" fill="none"/><path d="M259.8 263.6L268.3 258.6" stroke="#43533E" stroke-opacity="0.45" stroke-width=".5" fill="none"/><path d="M259.8 263.6L268.7 267.9" stroke="#43533E" stroke-opacity="0.45" stroke-width=".5" fill="none"/><path d="M221.5 249.5L217.2 239.4" stroke="#43533E" stroke-width=".9" stroke-opacity=".7"/><path d="M217.2 239.4C189.3 226.5 176.2 185.5 185.0 154.0C210.0 173.1 230.8 211.9 217.2 239.4Z" fill="none" fill-opacity="0.7539571793586433" stroke="#43533E" stroke-width="0.9" stroke-opacity="1"/><path d="M217.2 239.4Q200.1 197.2 186.3 157.4" fill="none" stroke="#43533E" stroke-opacity="0.7" stroke-width=".7"/><path d="M208.7 218.9L194.2 211.2" stroke="#43533E" stroke-opacity="0.45" stroke-width=".5" fill="none"/><path d="M208.7 218.9L213.3 203.1" stroke="#43533E" stroke-opacity="0.45" stroke-width=".5" fill="none"/><path d="M203.0 205.0L189.5 196.9" stroke="#43533E" stroke-opacity="0.45" stroke-width=".5" fill="none"/><path d="M203.0 205.0L206.6 189.7" stroke="#43533E" stroke-opacity="0.45" stroke-width=".5" fill="none"/><path d="M197.3 191.2L184.8 182.7" stroke="#43533E" stroke-opacity="0.45" stroke-width=".5" fill="none"/><path d="M197.3 191.2L199.9 176.2" stroke="#43533E" stroke-opacity="0.45" stroke-width=".5" fill="none"/><path d="M191.6 177.4L180.1 168.4" stroke="#43533E" stroke-opacity="0.45" stroke-width=".5" fill="none"/><path d="M191.6 177.4L193.2 162.8" stroke="#43533E" stroke-opacity="0.45" stroke-width=".5" fill="none"/><path d="M255.2 181.3L262.9 178.1" stroke="#43533E" stroke-width=".9" stroke-opacity=".7"/><path d="M262.9 178.1C270.8 152.0 302.3 143.3 326.5 151.1C315.1 177.7 286.0 194.2 262.9 178.1Z" fill="#43533E" fill-opacity="0.5975082841015159" stroke="#43533E" stroke-width="0.9" stroke-opacity="0.8475082841015159"/><path d="M262.9 178.1Q294.8 164.7 324.0 152.2" fill="none" stroke="#F4EFE4" stroke-opacity="0.45" stroke-width=".7"/><path d="M281.1 170.5L286.0 157.3" stroke="#F4EFE4" stroke-opacity="0.3" stroke-width=".5" fill="none"/><path d="M281.1 170.5L293.9 176.3" stroke="#F4EFE4" stroke-opacity="0.3" stroke-width=".5" fill="none"/><path d="M294.1 165.0L299.7 153.1" stroke="#F4EFE4" stroke-opacity="0.3" stroke-width=".5" fill="none"/><path d="M294.1 165.0L306.5 169.6" stroke="#F4EFE4" stroke-opacity="0.3" stroke-width=".5" fill="none"/><path d="M307.2 159.6L313.3 148.9" stroke="#F4EFE4" stroke-opacity="0.3" stroke-width=".5" fill="none"/><path d="M307.2 159.6L319.0 162.9" stroke="#F4EFE4" stroke-opacity="0.3" stroke-width=".5" fill="none"/><path d="M277.6 137.6L276.3 130.9" stroke="#43533E" stroke-width=".9" stroke-opacity=".7"/><path d="M276.3 130.9C259.2 119.7 256.8 92.8 263.5 75.2C282.1 89.0 290.1 115.4 276.3 130.9Z" fill="none" fill-opacity="0.7701420465792843" stroke="#43533E" stroke-width="0.9" stroke-opacity="1"/><path d="M276.3 130.9Q270.5 102.9 264.0 77.4" fill="none" stroke="#43533E" stroke-opacity="0.7" stroke-width=".7"/><path d="M272.3 111.1L264.0 104.6" stroke="#43533E" stroke-opacity="0.45" stroke-width=".5" fill="none"/><path d="M272.3 111.1L277.5 101.9" stroke="#43533E" stroke-opacity="0.45" stroke-width=".5" fill="none"/><path d="M269.1 95.8L262.1 89.0" stroke="#43533E" stroke-opacity="0.45" stroke-width=".5" fill="none"/><path d="M269.1 95.8L273.1 86.9" stroke="#43533E" stroke-opacity="0.45" stroke-width=".5" fill="none"/><path d="M301.7 92.0L308.4 89.5" stroke="#43533E" stroke-width=".9" stroke-opacity=".7"/><path d="M308.4 89.5C318.6 73.9 345.8 65.9 367.4 75.7C351.4 84.4 325.2 96.5 308.4 89.5Z" fill="none" fill-opacity="0.563543765092824" stroke="#43533E" stroke-width="0.9" stroke-opacity="0.813543765092824"/><path d="M308.4 89.5Q337.1 80.4 365.1 76.3" fill="none" stroke="#43533E" stroke-opacity="0.7" stroke-width=".7"/><path d="M328.5 82.7L334.6 74.9" stroke="#43533E" stroke-opacity="0.45" stroke-width=".5" fill="none"/><path d="M328.5 82.7L338.2 84.6" stroke="#43533E" stroke-opacity="0.45" stroke-width=".5" fill="none"/><path d="M344.1 77.4L350.5 70.5" stroke="#43533E" stroke-opacity="0.45" stroke-width=".5" fill="none"/><path d="M344.1 77.4L353.4 78.4" stroke="#43533E" stroke-opacity="0.45" stroke-width=".5" fill="none"/><path d="M330.0 40.0C326.9 12.7 350.0 -22.7 377.3 -36.3C373.3 -7.7 355.2 31.4 330.0 40.0Z" fill="#5E7057" fill-opacity="0.85" stroke="#43533E" stroke-width="0.9" stroke-opacity="1"/><path d="M330.0 40.0Q352.5 1.2 375.4 -33.2" fill="none" stroke="#F4EFE4" stroke-opacity="0.45" stroke-width=".7"/><path d="M340.8 21.0L339.9 6.2" stroke="#F4EFE4" stroke-opacity="0.3" stroke-width=".5" fill="none"/><path d="M340.8 21.0L353.9 13.9" stroke="#F4EFE4" stroke-opacity="0.3" stroke-width=".5" fill="none"/><path d="M348.1 8.2L347.9 -6.2" stroke="#F4EFE4" stroke-opacity="0.3" stroke-width=".5" fill="none"/><path d="M348.1 8.2L360.4 0.7" stroke="#F4EFE4" stroke-opacity="0.3" stroke-width=".5" fill="none"/><path d="M355.4 -4.5L355.9 -18.6" stroke="#F4EFE4" stroke-opacity="0.3" stroke-width=".5" fill="none"/><path d="M355.4 -4.5L366.9 -12.5" stroke="#F4EFE4" stroke-opacity="0.3" stroke-width=".5" fill="none"/><path d="M362.6 -17.3L363.9 -31.0" stroke="#F4EFE4" stroke-opacity="0.3" stroke-width=".5" fill="none"/><path d="M362.6 -17.3L373.5 -25.6" stroke="#F4EFE4" stroke-opacity="0.3" stroke-width=".5" fill="none"/><path d="M129.9 456.2C135.2 446.6 150.4 442.4 162.5 448.3C154.1 454.3 139.6 461.2 129.9 456.2Z" fill="#43533E" fill-opacity="0.8" stroke="#43533E" stroke-width="0.9" stroke-opacity="1"/><path d="M233.6 224.6C239.8 215.6 255.2 212.8 266.8 219.8C257.8 225.0 242.8 230.5 233.6 224.6Z" fill="#43533E" fill-opacity="0.8" stroke="#43533E" stroke-width="0.9" stroke-opacity="1"/><path d="M110 470Q150 330 260 250" fill="none" stroke="#43533E" stroke-width="1.2" stroke-linecap="round" stroke-opacity=".85"/><path d="M120.5 437.7L131.4 433.8" stroke="#43533E" stroke-width=".9" stroke-opacity=".7"/><path d="M131.4 433.8C147.8 408.1 191.7 396.3 223.9 406.3C200.8 427.4 158.4 446.4 131.4 433.8Z" fill="#5E7057" fill-opacity="0.7188885848665003" stroke="#43533E" stroke-width="0.9" stroke-opacity="0.9688885848665003"/><path d="M131.4 433.8Q177.1 418.5 220.2 407.4" fill="none" stroke="#F4EFE4" stroke-opacity="0.45" stroke-width=".7"/><path d="M151.1 427.0L160.6 413.5" stroke="#F4EFE4" stroke-opacity="0.3" stroke-width=".5" fill="none"/><path d="M151.1 427.0L167.0 431.4" stroke="#F4EFE4" stroke-opacity="0.3" stroke-width=".5" fill="none"/><path d="M163.6 422.7L173.4 410.0" stroke="#F4EFE4" stroke-opacity="0.3" stroke-width=".5" fill="none"/><path d="M163.6 422.7L179.2 426.4" stroke="#F4EFE4" stroke-opacity="0.3" stroke-width=".5" fill="none"/><path d="M176.0 418.5L186.1 406.5" stroke="#F4EFE4" stroke-opacity="0.3" stroke-width=".5" fill="none"/><path d="M176.0 418.5L191.4 421.4" stroke="#F4EFE4" stroke-opacity="0.3" stroke-width=".5" fill="none"/><path d="M188.5 414.2L198.8 403.0" stroke="#F4EFE4" stroke-opacity="0.3" stroke-width=".5" fill="none"/><path d="M188.5 414.2L203.6 416.3" stroke="#F4EFE4" stroke-opacity="0.3" stroke-width=".5" fill="none"/><path d="M201.0 409.9L211.6 399.5" stroke="#F4EFE4" stroke-opacity="0.3" stroke-width=".5" fill="none"/><path d="M201.0 409.9L215.8 411.3" stroke="#F4EFE4" stroke-opacity="0.3" stroke-width=".5" fill="none"/><path d="M134.5 403.5L129.9 396.4" stroke="#43533E" stroke-width=".9" stroke-opacity=".7"/><path d="M129.9 396.4C110.0 388.1 94.1 358.8 92.9 336.1C112.9 348.5 133.2 375.8 129.9 396.4Z" fill="#7E8D75" fill-opacity="0.6786793761461494" stroke="#43533E" stroke-width="0.9" stroke-opacity="0.9286793761461494"/><path d="M129.9 396.4Q111.1 366.5 94.3 338.5" fill="none" stroke="#F4EFE4" stroke-opacity="0.45" stroke-width=".7"/><path d="M119.1 379.4L108.7 374.3" stroke="#F4EFE4" stroke-opacity="0.3" stroke-width=".5" fill="none"/><path d="M119.1 379.4L118.8 367.8" stroke="#F4EFE4" stroke-opacity="0.3" stroke-width=".5" fill="none"/><path d="M111.3 367.1L101.6 361.6" stroke="#F4EFE4" stroke-opacity="0.3" stroke-width=".5" fill="none"/><path d="M111.3 367.1L110.4 356.0" stroke="#F4EFE4" stroke-opacity="0.3" stroke-width=".5" fill="none"/><path d="M103.6 354.9L94.5 348.9" stroke="#F4EFE4" stroke-opacity="0.3" stroke-width=".5" fill="none"/><path d="M103.6 354.9L102.0 344.2" stroke="#F4EFE4" stroke-opacity="0.3" stroke-width=".5" fill="none"/><path d="M149.1 374.8L156.5 373.0" stroke="#43533E" stroke-width=".9" stroke-opacity=".7"/><path d="M156.5 373.0C168.5 354.3 198.3 350.4 217.4 353.6C203.2 377.0 174.2 386.9 156.5 373.0Z" fill="#A3AE99" fill-opacity="0.8292566075536697" stroke="#43533E" stroke-width="0.9" stroke-opacity="1"/><path d="M156.5 373.0Q187.3 364.8 214.9 354.4" fill="none" stroke="#F4EFE4" stroke-opacity="0.45" stroke-width=".7"/><path d="M178.3 367.5L185.4 358.4" stroke="#F4EFE4" stroke-opacity="0.3" stroke-width=".5" fill="none"/><path d="M178.3 367.5L188.7 372.5" stroke="#F4EFE4" stroke-opacity="0.3" stroke-width=".5" fill="none"/><path d="M195.2 363.1L202.5 355.4" stroke="#F4EFE4" stroke-opacity="0.3" stroke-width=".5" fill="none"/><path d="M195.2 363.1L205.2 366.9" stroke="#F4EFE4" stroke-opacity="0.3" stroke-width=".5" fill="none"/><path d="M174.4 335.2L171.6 327.4" stroke="#43533E" stroke-width=".9" stroke-opacity=".7"/><path d="M171.6 327.4C152.4 315.9 144.0 284.3 148.0 262.2C167.6 277.3 181.5 307.6 171.6 327.4Z" fill="#43533E" fill-opacity="0.5893846726514593" stroke="#43533E" stroke-width="0.9" stroke-opacity="0.8393846726514593"/><path d="M171.6 327.4Q159.8 294.8 149.0 264.8" fill="none" stroke="#F4EFE4" stroke-opacity="0.45" stroke-width=".7"/><path d="M164.9 308.8L155.1 302.0" stroke="#F4EFE4" stroke-opacity="0.3" stroke-width=".5" fill="none"/><path d="M164.9 308.8L168.1 297.3" stroke="#F4EFE4" stroke-opacity="0.3" stroke-width=".5" fill="none"/><path d="M160.1 295.4L151.2 288.3" stroke="#F4EFE4" stroke-opacity="0.3" stroke-width=".5" fill="none"/><path d="M160.1 295.4L162.4 284.3" stroke="#F4EFE4" stroke-opacity="0.3" stroke-width=".5" fill="none"/><path d="M155.3 282.1L147.2 274.7" stroke="#F4EFE4" stroke-opacity="0.3" stroke-width=".5" fill="none"/><path d="M155.3 282.1L156.8 271.2" stroke="#F4EFE4" stroke-opacity="0.3" stroke-width=".5" fill="none"/><path d="M188.4 317.1L195.8 315.6" stroke="#43533E" stroke-width=".9" stroke-opacity=".7"/><path d="M195.8 315.6C208.6 300.3 237.9 296.6 256.1 297.8C241.1 317.8 212.1 326.3 195.8 315.6Z" fill="#5E7057" fill-opacity="0.7275366845391257" stroke="#43533E" stroke-width="0.9" stroke-opacity="0.9775366845391257"/><path d="M195.8 315.6Q226.2 308.2 253.7 298.5" fill="none" stroke="#F4EFE4" stroke-opacity="0.45" stroke-width=".7"/><path d="M217.4 310.6L224.8 303.2" stroke="#F4EFE4" stroke-opacity="0.3" stroke-width=".5" fill="none"/><path d="M217.4 310.6L227.1 314.4" stroke="#F4EFE4" stroke-opacity="0.3" stroke-width=".5" fill="none"/><path d="M234.1 306.7L241.7 300.4" stroke="#F4EFE4" stroke-opacity="0.3" stroke-width=".5" fill="none"/><path d="M234.1 306.7L243.6 309.5" stroke="#F4EFE4" stroke-opacity="0.3" stroke-width=".5" fill="none"/><path d="M217.5 285.7L217.0 279.8" stroke="#43533E" stroke-width=".9" stroke-opacity=".7"/><path d="M217.0 279.8C203.4 268.7 204.0 245.5 215.6 230.8C225.9 244.7 230.2 267.9 217.0 279.8Z" fill="#5E7057" fill-opacity="0.5789323496715025" stroke="#43533E" stroke-width="0.9" stroke-opacity="0.8289323496715025"/><path d="M217.0 279.8Q215.5 255.4 215.6 232.7" fill="none" stroke="#F4EFE4" stroke-opacity="0.45" stroke-width=".7"/><path d="M215.8 262.5L209.4 256.2" stroke="#F4EFE4" stroke-opacity="0.3" stroke-width=".5" fill="none"/><path d="M215.8 262.5L221.1 255.2" stroke="#F4EFE4" stroke-opacity="0.3" stroke-width=".5" fill="none"/><path d="M214.9 249.2L209.5 242.7" stroke="#F4EFE4" stroke-opacity="0.3" stroke-width=".5" fill="none"/><path d="M214.9 249.2L219.1 241.9" stroke="#F4EFE4" stroke-opacity="0.3" stroke-width=".5" fill="none"/><path d="M246.5 260.3L252.5 260.1" stroke="#43533E" stroke-width=".9" stroke-opacity=".7"/><path d="M252.5 260.1C264.6 245.2 288.2 247.4 302.5 256.6C287.9 272.9 263.9 276.3 252.5 260.1Z" fill="#43533E" fill-opacity="0.589841340395303" stroke="#43533E" stroke-width="0.9" stroke-opacity="0.839841340395303"/><path d="M252.5 260.1Q277.5 259.0 300.5 256.7" fill="none" stroke="#F4EFE4" stroke-opacity="0.45" stroke-width=".7"/><path d="M270.2 259.5L277.0 252.4" stroke="#F4EFE4" stroke-opacity="0.3" stroke-width=".5" fill="none"/><path d="M270.2 259.5L277.4 266.1" stroke="#F4EFE4" stroke-opacity="0.3" stroke-width=".5" fill="none"/><path d="M283.9 258.9L290.7 253.2" stroke="#F4EFE4" stroke-opacity="0.3" stroke-width=".5" fill="none"/><path d="M283.9 258.9L291.0 264.3" stroke="#F4EFE4" stroke-opacity="0.3" stroke-width=".5" fill="none"/><path d="M260.0 250.0C266.0 232.1 290.7 216.8 311.6 216.3C300.9 232.9 278.2 252.0 260.0 250.0Z" fill="#5E7057" fill-opacity="0.85" stroke="#43533E" stroke-width="0.9" stroke-opacity="1"/><path d="M260.0 250.0Q285.3 232.4 309.6 217.6" fill="none" stroke="#F4EFE4" stroke-opacity="0.45" stroke-width=".7"/><path d="M277.8 237.4L281.7 228.2" stroke="#F4EFE4" stroke-opacity="0.3" stroke-width=".5" fill="none"/><path d="M277.8 237.4L287.7 236.5" stroke="#F4EFE4" stroke-opacity="0.3" stroke-width=".5" fill="none"/><path d="M291.5 227.7L296.0 219.3" stroke="#F4EFE4" stroke-opacity="0.3" stroke-width=".5" fill="none"/><path d="M291.5 227.7L300.9 226.0" stroke="#F4EFE4" stroke-opacity="0.3" stroke-width=".5" fill="none"/><path d="M167.5 345.0C161.9 339.9 161.7 329.1 167.6 322.0C170.2 328.6 172.4 339.4 167.5 345.0Z" fill="#43533E" fill-opacity="0.8" stroke="#43533E" stroke-width="0.9" stroke-opacity="1"/><path d="M209.8 293.3C215.1 287.9 225.9 288.0 232.8 294.2C226.2 296.6 215.3 298.4 209.8 293.3Z" fill="#43533E" fill-opacity="0.8" stroke="#43533E" stroke-width="0.9" stroke-opacity="1"/><path d="M70 640Q30 560 10 470" fill="none" stroke="#43533E" stroke-width="1.2" stroke-linecap="round" stroke-opacity=".85"/><path d="M61.8 623.0L66.5 613.4" stroke="#43533E" stroke-width=".9" stroke-opacity=".7"/><path d="M66.5 613.4C53.2 582.0 76.2 546.7 114.6 537.8C115.7 568.2 101.3 608.7 66.5 613.4Z" fill="#7E8D75" fill-opacity="0.7831649456285386" stroke="#43533E" stroke-width="0.9" stroke-opacity="1"/><path d="M66.5 613.4Q87.9 574.3 112.7 540.8" fill="none" stroke="#F4EFE4" stroke-opacity="0.45" stroke-width=".7"/><path d="M76.6 594.2L70.5 577.3" stroke="#F4EFE4" stroke-opacity="0.3" stroke-width=".5" fill="none"/><path d="M76.6 594.2L93.8 588.7" stroke="#F4EFE4" stroke-opacity="0.3" stroke-width=".5" fill="none"/><path d="M83.5 581.3L78.6 564.9" stroke="#F4EFE4" stroke-opacity="0.3" stroke-width=".5" fill="none"/><path d="M83.5 581.3L99.4 575.2" stroke="#F4EFE4" stroke-opacity="0.3" stroke-width=".5" fill="none"/><path d="M90.3 568.3L86.6 552.6" stroke="#F4EFE4" stroke-opacity="0.3" stroke-width=".5" fill="none"/><path d="M90.3 568.3L105.0 561.7" stroke="#F4EFE4" stroke-opacity="0.3" stroke-width=".5" fill="none"/><path d="M97.1 555.4L94.6 540.3" stroke="#F4EFE4" stroke-opacity="0.3" stroke-width=".5" fill="none"/><path d="M97.1 555.4L110.6 548.2" stroke="#F4EFE4" stroke-opacity="0.3" stroke-width=".5" fill="none"/><path d="M45.9 586.4L40.4 582.7" stroke="#43533E" stroke-width=".9" stroke-opacity=".7"/><path d="M40.4 582.7C19.9 588.3 0.0 571.2 -7.7 554.8C16.4 548.7 40.3 560.9 40.4 582.7Z" fill="none" fill-opacity="0.5942038364200277" stroke="#43533E" stroke-width="0.9" stroke-opacity="0.8442038364200277"/><path d="M40.4 582.7Q16.9 567.9 -5.8 556.0" fill="none" stroke="#43533E" stroke-opacity="0.7" stroke-width=".7"/><path d="M23.9 572.1L13.3 574.0" stroke="#43533E" stroke-opacity="0.45" stroke-width=".5" fill="none"/><path d="M23.9 572.1L21.6 561.5" stroke="#43533E" stroke-opacity="0.45" stroke-width=".5" fill="none"/><path d="M11.2 563.8L1.4 564.6" stroke="#43533E" stroke-opacity="0.45" stroke-width=".5" fill="none"/><path d="M11.2 563.8L8.1 554.5" stroke="#43533E" stroke-opacity="0.45" stroke-width=".5" fill="none"/><path d="M32.1 549.0L37.6 543.1" stroke="#43533E" stroke-width=".9" stroke-opacity=".7"/><path d="M37.6 543.1C40.0 522.2 63.4 500.6 90.0 499.6C78.4 516.5 58.1 541.8 37.6 543.1Z" fill="#A3AE99" fill-opacity="0.8106625534807728" stroke="#43533E" stroke-width="0.9" stroke-opacity="1"/><path d="M37.6 543.1Q61.9 519.6 87.9 501.3" fill="none" stroke="#F4EFE4" stroke-opacity="0.45" stroke-width=".7"/><path d="M51.2 529.4L53.2 518.3" stroke="#F4EFE4" stroke-opacity="0.3" stroke-width=".5" fill="none"/><path d="M51.2 529.4L62.1 526.7" stroke="#F4EFE4" stroke-opacity="0.3" stroke-width=".5" fill="none"/><path d="M60.9 519.6L63.5 509.1" stroke="#F4EFE4" stroke-opacity="0.3" stroke-width=".5" fill="none"/><path d="M60.9 519.6L71.3 516.3" stroke="#F4EFE4" stroke-opacity="0.3" stroke-width=".5" fill="none"/><path d="M70.7 509.8L73.9 499.8" stroke="#F4EFE4" stroke-opacity="0.3" stroke-width=".5" fill="none"/><path d="M70.7 509.8L80.5 505.9" stroke="#F4EFE4" stroke-opacity="0.3" stroke-width=".5" fill="none"/><path d="M21.9 516.5L16.5 512.5" stroke="#43533E" stroke-width=".9" stroke-opacity=".7"/><path d="M16.5 512.5C-2.9 514.7 -22.4 496.7 -30.2 480.8C-7.3 478.6 15.8 492.8 16.5 512.5Z" fill="#43533E" fill-opacity="0.8610202856394484" stroke="#43533E" stroke-width="0.9" stroke-opacity="1"/><path d="M16.5 512.5Q-6.3 495.9 -28.3 482.1" fill="none" stroke="#F4EFE4" stroke-opacity="0.45" stroke-width=".7"/><path d="M0.5 500.6L-9.6 500.9" stroke="#F4EFE4" stroke-opacity="0.3" stroke-width=".5" fill="none"/><path d="M0.5 500.6L-2.0 490.8" stroke="#F4EFE4" stroke-opacity="0.3" stroke-width=".5" fill="none"/><path d="M-11.9 491.5L-21.3 490.9" stroke="#F4EFE4" stroke-opacity="0.3" stroke-width=".5" fill="none"/><path d="M-11.9 491.5L-15.1 482.7" stroke="#F4EFE4" stroke-opacity="0.3" stroke-width=".5" fill="none"/><path d="M12.9 482.7L15.0 478.4" stroke="#43533E" stroke-width=".9" stroke-opacity=".7"/><path d="M15.0 478.4C10.2 464.9 20.2 449.1 35.4 444.2C36.0 457.8 29.4 475.7 15.0 478.4Z" fill="#A3AE99" fill-opacity="0.7439792254113861" stroke="#43533E" stroke-width="0.9" stroke-opacity="0.9939792254113861"/><path d="M15.0 478.4Q24.4 460.9 34.6 445.6" fill="none" stroke="#F4EFE4" stroke-opacity="0.45" stroke-width=".7"/><path d="M21.5 465.9L19.6 458.8" stroke="#F4EFE4" stroke-opacity="0.3" stroke-width=".5" fill="none"/><path d="M21.5 465.9L28.3 463.1" stroke="#F4EFE4" stroke-opacity="0.3" stroke-width=".5" fill="none"/><path d="M26.5 456.3L25.4 449.6" stroke="#F4EFE4" stroke-opacity="0.3" stroke-width=".5" fill="none"/><path d="M26.5 456.3L32.5 453.1" stroke="#F4EFE4" stroke-opacity="0.3" stroke-width=".5" fill="none"/><path d="M10.0 470.0C-2.7 458.5 -6.6 432.4 0.6 414.7C10.6 429.7 18.3 455.5 10.0 470.0Z" fill="#5E7057" fill-opacity="0.85" stroke="#43533E" stroke-width="0.9" stroke-opacity="1"/><path d="M10.0 470.0Q4.5 442.5 1.0 416.9" fill="none" stroke="#F4EFE4" stroke-opacity="0.45" stroke-width=".7"/><path d="M5.9 450.6L-0.3 444.0" stroke="#F4EFE4" stroke-opacity="0.3" stroke-width=".5" fill="none"/><path d="M5.9 450.6L8.8 442.0" stroke="#F4EFE4" stroke-opacity="0.3" stroke-width=".5" fill="none"/><path d="M2.8 435.6L-2.6 428.8" stroke="#F4EFE4" stroke-opacity="0.3" stroke-width=".5" fill="none"/><path d="M2.8 435.6L4.8 427.2" stroke="#F4EFE4" stroke-opacity="0.3" stroke-width=".5" fill="none"/><path d="M42.9 578.7C42.2 571.9 48.5 564.4 56.8 563.1C54.6 569.2 49.6 577.9 42.9 578.7Z" fill="#43533E" fill-opacity="0.8" stroke="#43533E" stroke-width="0.9" stroke-opacity="1"/><path d="M37.4 564.1C31.2 567.1 21.9 563.8 17.8 556.5C24.3 556.4 34.2 558.0 37.4 564.1Z" fill="#43533E" fill-opacity="0.8" stroke="#43533E" stroke-width="0.9" stroke-opacity="1"/></svg>