<svg xmlns="http://www.w3.org/2000/svg" viewBox="0 0 150 270" width="150" height="270"><defs><linearGradient id="g_olive" x1="0" y1="0" x2="1" y2="1"><stop offset="0" stop-color="#8E9B83"/><stop offset="1" stop-color="#596B50"/></linearGradient><linearGradient id="g_forest" x1="0" y1="0" x2="1" y2="1"><stop offset="0" stop-color="#718069"/><stop offset="1" stop-color="#43533E"/></linearGradient><linearGradient id="g_sage" x1="0" y1="0" x2="1" y2="1"><stop offset="0" stop-color="#ABB4A0"/><stop offset="1" stop-color="#718069"/></linearGradient><linearGradient id="g_pale" x1="0" y1="0" x2="1" y2="1"><stop offset="0" stop-color="#C9D0BD"/><stop offset="1" stop-color="#9AA68E"/></linearGradient><linearGradient id="g_deep" x1="0" y1="0" x2="1" y2="1"><stop offset="0" stop-color="#596B50"/><stop offset="1" stop-color="#3A4A36"/></linearGradient><linearGradient id="g_dry" x1="0" y1="0" x2="1" y2="1"><stop offset="0" stop-color="#E2D6BC"/><stop offset="1" stop-color="#BFA97A"/></linearGradient><linearGradient id="g_gold" x1="0" y1="0" x2="1" y2="1"><stop offset="0" stop-color="#D6C7AA"/><stop offset="1" stop-color="#B8A476"/></linearGradient><linearGradient id="g_ln1" x1="0" y1="0" x2="1" y2="1"><stop offset="0" stop-color="#D5DCC9"/><stop offset="1" stop-color="#D5DCC9"/></linearGradient><linearGradient id="g_ln2" x1="0" y1="0" x2="1" y2="1"><stop offset="0" stop-color="#D6C7AA"/><stop offset="1" stop-color="#D6C7AA"/></linearGradient><filter id="soft" x="-5%" y="-5%" width="110%" height="110%"><feGaussianBlur stdDeviation=".5"/></filter></defs><path d="M60.0 270.0 Q59.1 245.0 58.9 232.5 Q58.6 220.0 58.6 207.5 Q58.6 195.0 58.8 182.5 Q58.9 170.0 59.3 157.5 Q59.7 145.0 60.3 132.6 Q61.0 120.1 61.8 107.6 Q62.7 95.1 63.8 82.7 Q64.9 70.2 66.2 57.8 Q67.6 45.4 69.2 33.0 L70.8 20.6" fill="none" stroke="#B8A476" stroke-width="0.8" stroke-linecap="round" opacity="0.85"/><path d="M58.6 220.0 L13.0 192.8" stroke="#B8A476" stroke-width=".6" opacity="0.85" fill="none"/><circle cx="13.0" cy="192.8" r="2.5" fill="#D6C7AA" opacity=".95"/><path d="M58.6 195.0 L80.8 174.2" stroke="#B8A476" stroke-width=".6" opacity="0.85" fill="none"/><circle cx="80.8" cy="174.2" r="1.9" fill="#C7B58E" opacity=".95"/><path d="M58.9 170.0 L36.7 145.3" stroke="#B8A476" stroke-width=".6" opacity="0.85" fill="none"/><circle cx="36.7" cy="145.3" r="1.9" fill="#D6C7AA" opacity=".95"/><path d="M59.7 145.0 L99.5 122.9" stroke="#B8A476" stroke-width=".6" opacity="0.85" fill="none"/><circle cx="99.5" cy="122.9" r="1.5" fill="#E6DABF" opacity=".95"/><path d="M61.0 120.1 L35.7 85.9" stroke="#B8A476" stroke-width=".6" opacity="0.85" fill="none"/><circle cx="35.7" cy="85.9" r="2.2" fill="#C7B58E" opacity=".95"/><path d="M62.7 95.1 L90.8 68.2" stroke="#B8A476" stroke-width=".6" opacity="0.85" fill="none"/><circle cx="90.8" cy="68.2" r="2.3" fill="#E6DABF" opacity=".95"/><path d="M64.9 70.2 L41.2 39.0" stroke="#B8A476" stroke-width=".6" opacity="0.85" fill="none"/><circle cx="41.2" cy="39.0" r="1.7" fill="#E6DABF" opacity=".95"/><path d="M67.6 45.4 L102.3 27.4" stroke="#B8A476" stroke-width=".6" opacity="0.85" fill="none"/><circle cx="102.3" cy="27.4" r="1.8" fill="#E6DABF" opacity=".95"/><circle cx="70.8" cy="20.6" r="2.4" fill="#C7B58E"/><path d="M105.0 270.0 Q107.8 254.2 109.0 246.3 Q110.2 238.4 111.3 230.5 Q112.3 222.6 113.2 214.6 Q114.1 206.7 114.8 198.7 Q115.4 190.7 115.9 182.7 Q116.4 174.8 116.7 166.8 Q117.0 158.8 117.1 150.8 Q117.2 142.8 117.0 134.8 Q116.9 126.8 116.6 118.8 L116.2 110.8" fill="none" stroke="#B8A476" stroke-width="0.8" stroke-linecap="round" opacity="0.7"/><path d="M110.2 238.4 L91.6 223.8" stroke="#B8A476" stroke-width=".6" opacity="0.7" fill="none"/><circle cx="91.6" cy="223.8" r="2.1" fill="#C7B58E" opacity=".95"/><path d="M112.3 222.6 L130.6 210.2" stroke="#B8A476" stroke-width=".6" opacity="0.7" fill="none"/><circle cx="130.6" cy="210.2" r="2.3" fill="#E6DABF" opacity=".95"/><path d="M114.1 206.7 L95.6 183.7" stroke="#B8A476" stroke-width=".6" opacity="0.7" fill="none"/><circle cx="95.6" cy="183.7" r="1.6" fill="#C7B58E" opacity=".95"/><path d="M115.4 190.7 L139.7 173.1" stroke="#B8A476" stroke-width=".6" opacity="0.7" fill="none"/><circle cx="139.7" cy="173.1" r="2.1" fill="#D6C7AA" opacity=".95"/><path d="M116.4 174.8 L103.4 158.5" stroke="#B8A476" stroke-width=".6" opacity="0.7" fill="none"/><circle cx="103.4" cy="158.5" r="1.7" fill="#E6DABF" opacity=".95"/><path d="M117.0 158.8 L135.8 144.3" stroke="#B8A476" stroke-width=".6" opacity="0.7" fill="none"/><circle cx="135.8" cy="144.3" r="1.5" fill="#C7B58E" opacity=".95"/><path d="M117.2 142.8 L93.3 128.3" stroke="#B8A476" stroke-width=".6" opacity="0.7" fill="none"/><circle cx="93.3" cy="128.3" r="1.9" fill="#D6C7AA" opacity=".95"/><path d="M116.9 126.8 L131.8 108.8" stroke="#B8A476" stroke-width=".6" opacity="0.7" fill="none"/><circle cx="131.8" cy="108.8" r="2.3" fill="#E6DABF" opacity=".95"/><circle cx="116.2" cy="110.8" r="2.4" fill="#C7B58E"/><path d="M80.0 270.0 Q78.1 256.4 77.2 249.6 Q76.4 242.7 75.7 235.9 Q75.0 229.1 74.4 222.2 Q73.8 215.4 73.4 208.5 Q72.9 201.6 72.6 194.8 Q72.3 187.9 72.2 181.0 Q72.0 174.2 72.0 167.3 L72.0 160.4" fill="none" stroke="#7C8A6F" stroke-width="1" stroke-linecap="round" opacity="0.9"/><g transform="translate(76.4 242.7) rotate(-156.0)" opacity="0.95"><path d="M0 0 C9.2 -4.3 23.8 -3.5 33.0 -0.1 C24.4 3.6 9.9 4.7 0 0Z" fill="url(#g_sage)" stroke="#718069" stroke-opacity=".25" stroke-width=".6"/></g><g transform="translate(76.4 242.7) rotate(-36.0)" opacity="0.95"><path d="M0 0 C8.0 -3.7 20.6 -4.3 28.6 -4.5 C21.2 1.4 8.6 3.5 0 0Z" fill="url(#g_olive)" stroke="#596B50" stroke-opacity=".25" stroke-width=".6"/></g><g transform="translate(73.8 215.4) rotate(-144.0)" opacity="0.95"><path d="M0 0 C9.2 -4.3 23.8 -5.2 33.0 -5.8 C24.4 1.9 9.9 4.6 0 0Z" fill="url(#g_sage)" stroke="#718069" stroke-opacity=".25" stroke-width=".6"/></g><g transform="translate(73.8 215.4) rotate(-44.0)" opacity="0.95"><path d="M0 0 C8.0 -3.7 20.6 -3.2 28.6 -0.6 C21.2 2.6 8.6 3.6 0 0Z" fill="url(#g_olive)" stroke="#596B50" stroke-opacity=".25" stroke-width=".6"/></g><g transform="translate(72.0 160.4) rotate(2)"><ellipse cx="0" cy="-6.8" rx="4.0" ry="6.8" transform="rotate(0)" fill="#F3E7C9" fill-opacity=".92" stroke="#B8A476" stroke-opacity=".55" stroke-width=".6"/><ellipse cx="0" cy="-6.8" rx="4.0" ry="6.8" transform="rotate(72)" fill="#F3E7C9" fill-opacity=".92" stroke="#B8A476" stroke-opacity=".55" stroke-width=".6"/><ellipse cx="0" cy="-6.8" rx="4.0" ry="6.8" transform="rotate(144)" fill="#F3E7C9" fill-opacity=".92" stroke="#B8A476" stroke-opacity=".55" stroke-width=".6"/><ellipse cx="0" cy="-6.8" rx="4.0" ry="6.8" transform="rotate(216)" fill="#F3E7C9" fill-opacity=".92" stroke="#B8A476" stroke-opacity=".55" stroke-width=".6"/><ellipse cx="0" cy="-6.8" rx="4.0" ry="6.8" transform="rotate(288)" fill="#F3E7C9" fill-opacity=".92" stroke="#B8A476" stroke-opacity=".55" stroke-width=".6"/><circle r="2.2" fill="#C7B58E"/><circle r="1.0" fill="#8A7648" fill-opacity=".7"/></g></svg>